<?xml version="1.0" encoding="iso-8859-1"?>
<!-- Generator: Adobe Illustrator 19.0.0, SVG Export Plug-In . SVG Version: 6.00 Build 0)  -->
<svg version="1.1" id="Capa_1" xmlns="http://www.w3.org/2000/svg" xmlns:xlink="http://www.w3.org/1999/xlink" x="0px" y="0px"
	 viewBox="0 0 512 512" style="enable-background:new 0 0 512 512;" xml:space="preserve">
<g>
	<g>
		<path d="M76,211H15c-8.291,0-15,6.709-15,15s6.709,15,15,15h61c8.291,0,15-6.709,15-15S84.291,211,76,211z"/>
	</g>
</g>
<g>
	<g>
		<path d="M466,211h-60c-8.291,0-15,6.709-15,15s6.709,15,15,15h60c8.291,0,15-6.709,15-15S474.291,211,466,211z"/>
	</g>
</g>
<g>
	<g>
		<path d="M410.702,56.298c-5.859-5.859-15.352-5.859-21.211,0L347.069,98.72c-5.859,5.859-5.859,15.352,0,21.211
			c5.859,5.859,15.352,5.859,21.211,0l42.422-42.422C416.561,71.65,416.561,62.157,410.702,56.298z"/>
	</g>
</g>
<g>
	<g>
		<path d="M134.931,98.72L92.509,56.298c-5.859-5.859-15.352-5.859-21.211,0c-5.859,5.859-5.859,15.352,0,21.211l42.422,42.422
			c5.859,5.859,15.352,5.859,21.211,0C140.79,114.072,140.79,104.579,134.931,98.72z"/>
	</g>
</g>
<g>
	<g>
		<path d="M241,0c-8.291,0-15,6.709-15,15v61c0,8.291,6.709,15,15,15s15-6.709,15-15V15C256,6.709,249.291,0,241,0z"/>
	</g>
</g>
<g>
	<g>
		<g>
			<path d="M238.555,307.542c0.014,0.02,0.031,0.037,0.045,0.057C238.057,306.783,238.067,306.801,238.555,307.542z"/>
			<path d="M238.555,307.542c-6.021-8.638-19.168-8.621-25.154,0.057l-65.7,99L118.001,367c-6-8.101-18.001-8.101-24.001,0L3,488
				c-3.3,4.499-3.9,10.499-1.5,15.599C4.2,508.7,9.3,512,15,512h358.9C372.016,509.167,246.186,319.12,238.555,307.542z"/>
		</g>
	</g>
</g>
<g>
	<g>
		<path d="M241,121c-66.167,0-120,53.833-120,120c0,35.473,15.564,67.69,40.913,89.934l26.499-39.924
			c8.73-12.656,22.676-19.937,37.588-19.937c3.078,0,6.072,0.496,9.027,1.097l43.4-65.198c8.423-12.407,22.412-19.673,37.573-19.673
			s29.15,7.266,37.412,19.453l3.763,5.649C344.26,160.067,297.263,121,241,121z"/>
	</g>
</g>
<g>
	<g>
		<path d="M509.277,488.598L328.599,223.599c-5.7-8.399-19.499-8.399-25.199,0l-42.653,64.085
			c6.193,7.491,43.37,65.763,149.163,224.315h87.066c5.4,0,10.499-3.001,13.2-7.8C512.877,499.1,512.577,493.399,509.277,488.598z"
			/>
	</g>
</g>
<g>
</g>
<g>
</g>
<g>
</g>
<g>
</g>
<g>
</g>
<g>
</g>
<g>
</g>
<g>
</g>
<g>
</g>
<g>
</g>
<g>
</g>
<g>
</g>
<g>
</g>
<g>
</g>
<g>
</g>
</svg>
